<?xml version="1.0" encoding="UTF-8" standalone="no"?>
<svg
   version="1.1"
   width="576pt"
   height="396pt"
   id="svg101"
   viewBox="0 0 576 396"
   sodipodi:docname="onetouch_onblack.cdr"
   xmlns:inkscape="http://www.inkscape.org/namespaces/inkscape"
   xmlns:sodipodi="http://sodipodi.sourceforge.net/DTD/sodipodi-0.dtd"
   xmlns="http://www.w3.org/2000/svg"
   xmlns:svg="http://www.w3.org/2000/svg">
  <defs
     id="defs105" />
  <sodipodi:namedview
     id="namedview103"
     pagecolor="#ffffff"
     bordercolor="#000000"
     borderopacity="0.25"
     inkscape:showpageshadow="2"
     inkscape:pageopacity="0.0"
     inkscape:pagecheckerboard="0"
     inkscape:deskcolor="#d1d1d1"
     inkscape:document-units="pt" />
  <g
     id="Layer1000">
    <path
       d="m -1e-4,0 v 395.9999 h 576 V 0 Z"
       style="fill:#1b1918;fill-rule:evenodd"
       id="path2" />
    <g
       id="Layer1001">
      <path
         d="m 171.5399,332.4119 -4.8744,-11.2804 -4.8343,11.2804 z m -7.09,-17.2022 h 4.5925 l 12.4079,28.4015 h -5.2368 l -2.8606,-6.8081 h -13.3348 l -2.9005,6.8081 h -5.0757 z m 53.8191,28.8846 c -2.2022,0 -4.2032,-0.3689 -6.0024,-1.1078 -1.7992,-0.7383 -3.3368,-1.7591 -4.6128,-3.0612 -1.2754,-1.3027 -2.2626,-2.8339 -2.9609,-4.593 -0.6983,-1.7592 -1.0475,-3.6726 -1.0475,-5.7403 v -0.0807 c 0,-1.9609 0.3561,-3.8274 1.0742,-5.5999 0.7186,-1.7725 1.7255,-3.3234 3.0218,-4.6527 1.2957,-1.3294 2.8397,-2.3838 4.6261,-3.1628 1.7858,-0.7789 3.7398,-1.1681 5.8615,-1.1681 1.2354,0 2.3565,0.087 3.364,0.2616 1.0069,0.1746 1.9401,0.4234 2.7997,0.7453 0.8595,0.3225 1.6716,0.7186 2.4371,1.1884 0.7656,0.4704 1.5109,1.0139 2.2359,1.6316 l -3.1424,3.7468 c -0.5371,-0.4565 -1.0875,-0.8729 -1.6513,-1.2488 -0.5643,-0.3758 -1.1553,-0.6919 -1.773,-0.9466 -0.6177,-0.2552 -1.2957,-0.457 -2.0341,-0.6043 -0.7389,-0.1479 -1.5509,-0.2216 -2.4372,-0.2216 -1.2893,0 -2.4911,0.2686 -3.6058,0.8056 -1.1148,0.5371 -2.0816,1.2621 -2.9006,2.1617 -0.819,0.9002 -1.4639,1.954 -1.9337,3.1692 -0.4699,1.2087 -0.7048,2.4911 -0.7048,3.8343 v 0.0801 c 0,1.4505 0.228,2.8002 0.6845,4.0356 0.457,1.2418 1.1014,2.3026 1.947,3.1894 0.8463,0.8863 1.8467,1.591 3.0149,2.1014 1.1687,0.5104 2.4708,0.7656 3.9214,0.7656 1.3363,0 2.5914,-0.1949 3.7531,-0.5841 1.1682,-0.3961 2.1756,-0.9135 3.0352,-1.5648 v -5.3041 h -7.2112 v -4.3106 h 12.0049 v 11.8442 c -0.6983,0.5905 -1.4703,1.1548 -2.3165,1.6919 -0.8457,0.5371 -1.7592,1.0069 -2.7394,1.4099 -0.9802,0.4026 -2.0346,0.7187 -3.1622,0.9466 -1.128,0.2285 -2.3101,0.3422 -3.5455,0.3422 z m 36.8187,-28.6833 h 20.8679 v 4.4718 h -15.9529 v 7.2517 h 14.1404 v 4.4718 h -14.1404 v 7.5331 h 16.1547 v 4.4718 h -21.0697 z m 45.6011,0 h 4.586 l 15.0737,19.4984 V 315.411 h 4.9149 v 28.2002 h -4.1429 l -15.5168,-20.0623 v 20.0623 h -4.9149 z m 63.5689,28.6833 c -2.0683,0 -3.9753,-0.3758 -5.7211,-1.1275 -1.7453,-0.7523 -3.2631,-1.7794 -4.5455,-3.0821 -1.2824,-1.3027 -2.2893,-2.8403 -3.0212,-4.6128 -0.732,-1.7725 -1.0945,-3.6656 -1.0945,-5.6799 v -0.0807 c 0,-2.0143 0.3561,-3.901 1.0742,-5.6602 0.7186,-1.7591 1.7255,-3.3037 3.0218,-4.633 1.2957,-1.3294 2.8333,-2.3769 4.6058,-3.1425 1.7725,-0.765 3.7329,-1.1478 5.8818,-1.1478 1.2888,0 2.4638,0.1073 3.5247,0.3225 1.0608,0.2146 2.0346,0.5168 2.9208,0.906 0.8863,0.3897 1.7052,0.8531 2.4575,1.3902 0.7522,0.5371 1.4639,1.1275 2.135,1.7725 l -3.1825,3.6662 c -1.1281,-1.0475 -2.3229,-1.8937 -3.5855,-2.5381 -1.2621,-0.645 -2.6988,-0.9669 -4.3106,-0.9669 -1.3427,0 -2.5851,0.2616 -3.7265,0.7854 -1.1409,0.5237 -2.1281,1.2354 -2.9609,2.135 -0.8324,0.9001 -1.4768,1.954 -1.9338,3.1627 -0.4564,1.2087 -0.6844,2.4975 -0.6844,3.8674 v 0.0806 c 0,1.3694 0.228,2.6657 0.6844,3.8872 0.457,1.2221 1.1014,2.2899 1.9338,3.2028 0.8328,0.9135 1.82,1.6315 2.9609,2.1553 1.1414,0.5237 2.3838,0.7859 3.7265,0.7859 1.7191,0 3.1963,-0.3289 4.4317,-0.9872 1.2354,-0.6577 2.4575,-1.5509 3.6657,-2.679 l 3.183,3.223 c -0.7256,0.779 -1.4842,1.4703 -2.2765,2.0747 -0.7923,0.6044 -1.6449,1.1281 -2.5578,1.5712 -0.9135,0.4431 -1.914,0.779 -3.0015,1.0069 -1.0875,0.2285 -2.2898,0.3422 -3.6053,0.3422 z M 407.7638,332.4925 396.564,315.411 h 5.8417 l 7.8956,12.4885 7.9768,-12.4885 h 5.6805 l -11.1998,16.9603 v 11.2399 h -4.995 z"
         style="fill:#ffffff;fill-rule:evenodd"
         id="path4" />
      <g
         id="Layer1002">
        <path
           d="M 101.7793,222.1838 H 73.995 v -14.268 h 71.0881 v 14.268 h -27.7843 v 73.3406 h -15.5195 z m 196.6109,74.7174 c -5.6736,0 -10.8052,-0.8141 -15.394,-2.4409 -4.5887,-1.6267 -8.5106,-4.0671 -11.7646,-7.3211 -3.254,-3.254 -5.7579,-7.2806 -7.5096,-12.0775 -1.7517,-4.7975 -2.6283,-10.3669 -2.6283,-16.7084 v -50.4375 h 15.269 v 49.8118 c 0,8.1759 1.9824,14.3935 5.924,18.648 3.9422,4.255 9.3867,6.3831 16.3539,6.3831 6.8834,0 12.2863,-2.0448 16.2284,-6.1327 3.9417,-4.088 5.924,-10.1796 5.924,-18.2727 v -50.4375 h 15.2685 v 49.6869 c 0,6.5069 -0.8974,12.2237 -2.6907,17.1461 -1.7934,4.9219 -4.3181,9.0323 -7.5716,12.3274 -3.2535,3.2957 -7.1972,5.7579 -11.8271,7.3841 -4.6303,1.6268 -9.825,2.4409 -15.5819,2.4409 z m 89.5418,0.125 c -6.4242,0 -12.3487,-1.1687 -17.7719,-3.5044 -5.4227,-2.3358 -10.1379,-5.5284 -14.1217,-9.5742 -3.9839,-4.0457 -7.113,-8.824 -9.3862,-14.3304 -2.2733,-5.5065 -3.4003,-11.3888 -3.4003,-17.647 v -0.2499 c 0,-6.2581 1.1056,-12.1196 3.3373,-17.5844 2.2316,-5.4649 5.3607,-10.2629 9.3867,-14.393 4.026,-4.1301 8.8032,-7.3847 14.3096,-9.762 5.506,-2.3774 11.5976,-3.5669 18.2727,-3.5669 4.0047,0 7.6554,0.3342 10.951,1.0016 3.2951,0.6668 6.3207,1.6064 9.0734,2.8157 2.7532,1.2092 5.2988,2.6496 7.6345,4.318 2.3357,1.6678 4.5476,3.5044 6.6335,5.5065 l -9.8875,11.3893 c -3.5044,-3.254 -7.2176,-5.8829 -11.139,-7.8849 -3.9208,-2.0021 -8.3851,-3.0037 -13.3913,-3.0037 -4.1718,0 -8.0312,0.8142 -11.5768,2.4404 -3.5455,1.6268 -6.6126,3.8386 -9.1988,6.6335 -2.5861,2.7949 -4.5897,6.0703 -6.0077,9.8245 -1.4175,3.7543 -2.1276,7.7605 -2.1276,12.0151 v 0.2503 c 0,4.254 0.7096,8.2816 2.1276,12.0775 1.418,3.796 3.4216,7.113 6.0077,9.9495 2.5862,2.8365 5.6533,5.0692 9.1988,6.6959 3.5456,1.6262 7.405,2.4404 11.5768,2.4404 5.3399,0 9.9291,-1.0218 13.7672,-3.0661 3.8381,-2.0442 7.6345,-4.8188 11.3888,-8.3227 l 9.8875,10.0125 c -2.253,2.4195 -4.6106,4.5684 -7.0713,6.445 -2.4607,1.8771 -5.1103,3.5044 -7.9474,4.8813 -2.837,1.3769 -5.9453,2.4195 -9.3242,3.1285 -3.379,0.709 -7.1129,1.0641 -11.2014,1.0641 z m 41.4827,-89.1104 h 15.269 v 36.4204 h 42.0518 v -36.4204 h 15.2691 v 87.6086 h -15.2691 v -36.9207 h -42.0518 v 36.9207 h -15.269 z"
           style="fill:#ffcb00;fill-rule:evenodd"
           id="path6" />
        <path
           d="m 168.2595,107.7044 c 9.3493,0 17.8173,3.7916 23.9457,9.9206 6.129,6.1285 9.9206,14.5964 9.9206,23.9457 0,9.3505 -3.7916,17.8173 -9.9206,23.9463 -1.7607,1.7607 -3.7142,3.3277 -5.8268,4.6682 v -11.9141 c 4.0479,-4.3901 6.5219,-10.2559 6.5219,-16.7004 0,-6.8043 -2.758,-12.9658 -7.2165,-17.4243 -4.4584,-4.4585 -10.62,-7.2165 -17.4243,-7.2165 -6.8054,0 -12.9664,2.758 -17.4249,7.2165 -4.4584,4.4585 -7.2165,10.6189 -7.2165,17.4243 0,6.4419 2.4719,12.3055 6.5171,16.6951 l 0.004,11.9189 c -2.1115,-1.3406 -4.0655,-2.9075 -5.8258,-4.6677 -6.1284,-6.129 -9.92,-14.5958 -9.92,-23.9463 0,-9.3504 3.7916,-17.8172 9.92,-23.9457 6.1285,-6.129 14.5959,-9.9206 23.9463,-9.9206 z"
           style="fill:#ffffff;fill-rule:evenodd"
           id="path8" />
        <path
           d="m 235.8566,213.4295 c -2.113,0 -4.0282,0.8579 -5.409,2.2392 v 0.0138 c -1.3899,1.3899 -2.253,3.3052 -2.253,5.409 v 2.9827 c 0,1.9909 -1.6148,3.6057 -3.6057,3.6057 -1.9908,0 -3.6056,-1.6148 -3.6056,-3.6057 v -2.9827 -2.9822 -3.5076 c 0,-2.1038 -0.8636,-4.0196 -2.253,-5.409 -1.39,-1.3899 -3.3052,-2.253 -5.409,-2.253 -2.1131,0 -4.0283,0.858 -5.409,2.2392 l -0.0138,0.0138 c -1.3813,1.3808 -2.2393,3.296 -2.2393,5.409 v 2.9822 c 0,1.9909 -1.6148,3.6057 -3.6056,3.6057 -1.9909,0 -3.6057,-1.6148 -3.6057,-3.6057 v -2.9822 -2.9827 -4.805 c 0,-2.1038 -0.8636,-4.0196 -2.253,-5.409 -1.39,-1.39 -3.3052,-2.253 -5.409,-2.253 -2.113,0 -4.0283,0.8579 -5.409,2.2392 l -0.0138,0.0138 c -1.3813,1.3807 -2.2392,3.296 -2.2392,5.409 v 2.9827 c 0,1.9909 -1.6148,3.6057 -3.6057,3.6057 -1.9909,0 -3.6057,-1.6148 -3.6057,-3.6057 v -2.9827 -2.9823 -48.7576 c 0,-2.1038 -0.8636,-4.0196 -2.253,-5.409 -1.3899,-1.3899 -3.3052,-2.253 -5.409,-2.253 -2.113,0 -4.0283,0.8579 -5.409,2.2392 l -0.0138,0.0138 c -1.3812,1.3807 -2.2392,3.296 -2.2392,5.409 l 10e-4,49.1506 c 0.0153,31.1591 0.0302,38.4864 0.0302,49.0985 0,11.3903 4.6629,21.7484 12.1737,29.2592 7.5107,7.5108 17.8693,12.1737 29.2592,12.1737 11.3908,0 21.7494,-4.6629 29.2602,-12.1737 7.5107,-7.5113 12.1737,-17.8694 12.1737,-29.2592 0,-3.4753 0.0148,-5.8924 0.0301,-16.1151 l 0.002,-16.1166 c 0,-2.1094 -0.8606,-4.0267 -2.2464,-5.4157 l -0.007,0.007 c -1.3899,-1.3899 -3.3052,-2.253 -5.409,-2.253 z m -8.7305,-4.3523 c 2.4595,-1.7967 5.48,-2.8591 8.7305,-2.8591 4.0932,0 7.8128,1.6726 10.5068,4.3666 v 0.0138 c 2.6935,2.694 4.3666,6.409 4.3666,10.493 0,5.3732 -0.0159,5.8929 -0.0302,16.1166 l -0.002,16.1151 c 0,13.3792 -5.4724,25.5416 -14.2872,34.357 -8.8149,8.8148 -20.9779,14.2872 -34.357,14.2872 -13.3802,0 -25.5432,-5.4724 -34.358,-14.2872 -8.8149,-8.8149 -14.2873,-20.9773 -14.2873,-34.357 l -0.002,-49.0985 c -0.0143,-31.1755 -0.0301,-32.7841 -0.0301,-49.1506 0,-4.0768 1.672,-7.7923 4.3665,-10.493 l 0.0138,-0.0138 c 2.6997,-2.6945 6.4162,-4.3665 10.493,-4.3665 4.0932,0 7.8128,1.6725 10.5068,4.3665 2.6935,2.6935 4.3666,6.4136 4.3666,10.5068 v 39.0133 c 2.2443,-1.3613 4.8683,-2.1468 7.662,-2.1468 4.0931,0 7.8128,1.6726 10.5068,4.3666 1.6648,1.6648 2.9393,3.7222 3.6705,6.0171 2.389,-1.6368 5.27,-2.5959 8.3581,-2.5959 4.0931,0 7.8127,1.6725 10.5068,4.3665 1.4103,1.4104 2.5407,3.1023 3.298,4.9823 z"
           style="fill:#ffcb00;fill-rule:evenodd"
           id="path10" />
        <path
           d="m 199.5708,110.2592 c 8.6455,8.6462 12.9699,19.9799 12.9699,31.3116 0,11.3323 -4.3244,22.6653 -12.9699,31.3115 l -3.2608,-3.2608 c 7.7447,-7.7453 11.618,-17.8983 11.618,-28.0507 0,-10.1517 -3.8733,-20.3054 -11.618,-28.0508 z m -62.6231,62.6231 c -8.6468,-8.6468 -12.9699,-19.9792 -12.9699,-31.3115 0,-11.3317 4.3231,-22.6647 12.9699,-31.3116 l 3.2608,3.2608 c -7.7454,7.7454 -11.618,17.8991 -11.618,28.0508 0,10.1524 3.8726,20.3054 11.618,28.0507 z"
           style="fill:#ffcb00;fill-rule:evenodd"
           id="path12" />
        <path
           d="m 220.3638,109.4652 h 10.5874 l 34.8006,45.0159 v -45.0159 h 11.3472 v 65.1059 h -9.5645 L 231.7109,128.253 v 46.3181 h -11.3471 z m 65.9847,0 h 48.1781 v 10.3242 h -36.831 v 16.7415 h 32.6459 v 10.3237 h -32.6459 v 17.3928 h 37.296 v 10.3237 h -48.6431 z"
           style="fill:#ffffff;fill-rule:evenodd"
           id="path14" />
        <g
           id="Layer1003">
          <g
             id="Layer1004">
            <g
               id="Layer1005">
              <path
                 d="m 131.7963,79.6076 c -1.6086,-3e-4 -3.0645,0.6523 -4.1174,1.7056 -1.0197,1.0207 -1.6636,2.4151 -1.7064,3.9571 l 0.008,0.4581 c 0.0112,0.221 0.0348,0.4386 0.07,0.6517 -0.4622,0.1329 -0.9497,0.2031 -1.4545,0.2019 -0.2848,-2e-4 -0.564,-0.0234 -0.8372,-0.0671 -0.0474,-0.3544 -0.0723,-0.7152 -0.0723,-1.0827 l 0.002,-0.0092 c 10e-4,-2.237 0.9074,-4.2631 2.3713,-5.7271 1.4305,-1.4307 3.3935,-2.329 5.5666,-2.3726 l 0.4909,0.0045 c 2.1119,0.0831 4.016,0.9717 5.4116,2.3669 1.4667,1.467 2.3744,3.4955 2.3749,5.7329 -4e-4,2.2414 -0.9079,4.2704 -2.3742,5.7359 -1.4665,1.467 -3.4955,2.3744 -5.7329,2.3748 -2.2414,-3e-4 -4.2704,-0.9078 -5.7363,-2.3736 -0.3579,-0.3581 -0.683,-0.7498 -0.9691,-1.17 0.88,-0.0499 1.7251,-0.2302 2.5157,-0.5214 l 0.0707,0.0723 c 1.0539,1.0532 2.5097,1.7062 4.1148,1.706 1.6086,2e-4 3.0654,-0.6526 4.1179,-1.7054 1.0541,-1.0541 1.7066,-2.5103 1.7066,-4.1144 2e-4,-1.6086 -0.6529,-3.0649 -1.7054,-4.118 -1.0544,-1.0535 -2.5103,-1.7065 -4.1153,-1.7062 z"
                 style="fill:#ffcb00;fill-rule:evenodd"
                 id="path16" />
              <path
                 d="m 124.5213,75.4073 c -1.6086,-2e-4 -3.0645,0.6524 -4.1174,1.7057 -1.0198,1.0206 -1.6636,2.4151 -1.7064,3.957 l 0.008,0.4582 c 0.0754,1.488 0.7101,2.8294 1.6975,3.8172 1.0539,1.0531 2.5097,1.7062 4.1148,1.7059 1.6085,3e-4 3.0654,-0.6526 4.1179,-1.7053 1.0541,-1.0541 1.7066,-2.5103 1.7065,-4.1145 -1e-4,-0.2828 -0.0195,-0.561 -0.0588,-0.8334 0.4792,-0.1441 0.9878,-0.2209 1.5141,-0.2193 0.2619,-3e-4 0.5191,0.0192 0.7712,0.0568 0.0395,0.325 0.0601,0.6557 0.0603,0.9918 -4e-4,2.2414 -0.9078,4.2703 -2.3741,5.7359 -1.4665,1.467 -3.4956,2.3744 -5.7329,2.3748 -2.2415,-4e-4 -4.2704,-0.9078 -5.7363,-2.3736 -1.4666,-1.467 -2.3738,-3.4952 -2.3743,-5.7326 l 0.002,-0.0091 c 0.002,-2.237 0.9074,-4.2632 2.3714,-5.7271 1.4305,-1.4308 3.3935,-2.329 5.5666,-2.3726 l 0.4909,0.0044 c 2.1119,0.0832 4.016,0.9717 5.4116,2.367 0.3871,0.3869 0.7351,0.8129 1.0378,1.2719 -0.8722,0.0506 -1.7087,0.2291 -2.4924,0.5161 l -0.1627,-0.1689 c -1.0544,-1.0535 -2.5103,-1.7065 -4.1153,-1.7063 z"
                 style="fill:#ffcb00;fill-rule:evenodd"
                 id="path18" />
            </g>
            <path
               d="m 136.5384,75.2019 1.0594,0.6117 1.0594,0.6116 0.4721,1.4133 -3.336,1.1005 -0.7149,-3.4393 z"
               style="fill:#ffcb00;fill-rule:evenodd"
               id="path21" />
          </g>
          <g
             id="Layer1006">
            <path
               d="m 90.2021,153.196 h 18.457 v 12.2765 c 0,0.8775 -0.3078,1.1853 -1.1853,1.1853 H 91.3874 c -0.8775,0 -1.1853,-0.3078 -1.1853,-1.1853 z m -1.6087,-1.778 v 13.7158 c 0,2.1594 0.9733,3.1327 3.1327,3.1327 h 15.409 c 2.1594,0 3.1327,-0.9733 3.1327,-3.1327 V 151.418 c 0,-3.35 -2.1282,-3.1325 -4.1487,-3.1325 v 1.778 c 0,2.0307 -3.3866,2.0977 -3.3866,-0.0847 v -1.6933 h -6.6039 v 1.6933 c 0,2.1824 -3.3866,2.1154 -3.3866,0.0847 v -1.778 c -2.0204,0 -4.1486,-0.2175 -4.1486,3.1325 z"
               style="fill:#ffcb00;fill-rule:evenodd"
               id="path24" />
            <path
               d="m 95.028,157.4293 c 0,3.737 5.3082,3.8747 5.5374,0.2162 0.0841,-1.3421 -1.059,-2.8408 -2.4048,-2.8408 H 97.314 c -1.0985,0 -2.286,1.3876 -2.286,2.6246 z"
               style="fill:#ffcb00;fill-rule:evenodd"
               id="path26" />
            <path
               d="m 92.5726,165.3878 c 0,0.3081 4.3816,0.1693 5.0113,0.163 l -1.9633,-4.9889 c -1.0842,0.0902 -3.048,2.4794 -3.048,4.8259 z"
               style="fill:#ffcb00;fill-rule:evenodd"
               id="path28" />
            <path
               d="m 97.9913,165.5571 c 0.8748,0 1.7497,0 2.6246,0 0.4925,0 2.3706,0.1922 2.3706,-0.254 0,-1.9776 -1.5304,-4.4074 -2.9724,-4.7448 z"
               style="fill:#ffcb00;fill-rule:evenodd"
               id="path30" />
            <path
               d="m 100.1925,159.8846 c 0.2208,0.3014 2.4983,1.5847 2.8787,3.2173 h 3.0479 c 0,-2.1685 -1.8305,-4.064 -2.7939,-4.064 -0.2323,0 -0.6803,0.3387 -1.1853,0.3387 -1.0509,0 -0.9185,-0.2142 -1.4107,-0.2337 z"
               style="fill:#ffcb00;fill-rule:evenodd"
               id="path32" />
            <path
               d="m 100.2772,155.3127 c 0.6658,0.9943 0.8467,1.0673 0.8467,2.4552 0,0.7158 -0.5175,1.1007 0.762,1.1007 1.0985,0 2.2013,-0.8731 2.2013,-1.9472 v -0.508 c 0,-1.7284 -2.6894,-2.7742 -3.81,-1.1007 z"
               style="fill:#ffcb00;fill-rule:evenodd"
               id="path34" />
            <path
               d="m 93.6733,147.3541 v 2.6247 c 0,0.971 1.524,0.971 1.524,0 v -2.6247 c 0,-0.9208 -1.524,-0.9208 -1.524,0 z"
               style="fill:#ffcb00;fill-rule:evenodd"
               id="path36" />
            <path
               d="m 103.6639,147.3541 v 2.6247 c 0,0.971 1.5239,0.971 1.5239,0 v -2.6247 c 0,-0.9208 -1.5239,-0.9208 -1.5239,0 z"
               style="fill:#ffcb00;fill-rule:evenodd"
               id="path38" />
            <path
               d="m 97.314,160.9006 c -0.6343,2.7224 -0.0455,1.8824 0.4233,3.8945 0.2457,-0.18 0.3595,-0.693 0.4762,-1.0477 0.7705,-2.3397 0.1164,-1.0187 0.1164,-2.8468 z"
               style="fill:#ffcb00;fill-rule:evenodd"
               id="path40" />
          </g>
          <g
             id="Layer1007">
            <path
               d="m 92.9805,119.2097 c 0.6832,1.0446 2.6939,0.987 2.9894,-0.2817 1.0413,0.0867 2.0911,1.7138 2.1197,2.9969 -0.2748,0.127 -1.7879,0.0731 -2.1197,0.0731 0,1.9408 -0.3044,3.4175 0.9664,4.6619 0.1595,0.156 0.4211,0.3958 0.6417,0.4547 0.7861,-3.3743 4.5097,-3.733 6.1506,-1.5456 0.0969,0.129 0.209,0.2602 0.2803,0.3776 0.1091,0.1795 0.1325,0.3262 0.2207,0.5101 0.2461,-0.1802 0.3363,-0.5786 0.5404,-0.8485 0.1395,-0.1844 0.516,-0.56 0.6896,-0.6991 1.2538,-1.0049 3.2635,-0.9131 4.3451,0.1389 0.5297,0.5153 1.0724,1.1385 1.1496,2.0666 0.8854,-0.2364 1.6813,-1.7534 1.6813,-3.0699 V 121.998 H 99.4785 c -0.3469,0 -0.1368,-0.276 -0.3054,-0.9373 -0.4008,-1.571 -1.0331,-2.4986 -2.5443,-3.2302 -0.5761,-0.2789 -0.4468,-0.0717 -0.7188,-0.5238 -0.092,-0.1527 -0.1512,-0.2522 -0.2844,-0.3734 -0.8985,-0.8175 -2.2087,-0.3575 -2.6877,0.4269 -0.2839,0.4648 -0.2489,1.4036 0.0426,1.8495 z"
               style="fill:#ffcb00;fill-rule:evenodd"
               id="path43" />
            <path
               d="m 103.4987,120.463 c 0,0.7792 0.8586,0.7903 1.1001,0.3691 0.0947,-0.165 0.0728,-0.4643 0.0705,-0.7335 l 0.0128,-6.5692 c 0.2004,-0.5432 2.6465,0.568 3.0069,0.7698 0.2226,0.1246 0.3127,0.2499 0.5609,0.3162 -0.103,0.2145 -0.1606,0.4463 -0.2348,0.7155 -0.064,0.2321 -0.1418,0.4505 -0.2314,0.7188 l -0.9227,2.8783 c -0.1197,0.438 -0.9846,2.1928 0.1463,2.1928 0.5529,0 0.6255,-0.6735 0.7764,-1.124 l 1.4164,-4.4311 c 0.4343,0.1159 1.1701,1.4148 1.3755,1.8406 1.1253,2.333 0.2459,3.4516 1.152,3.6776 1.452,0.3622 0.3754,-3.012 0.2057,-3.5004 -0.0866,-0.2494 -0.1529,-0.3671 -0.2364,-0.5676 l -0.8775,-1.5346 c -0.1097,-0.146 -0.2361,-0.2762 -0.3658,-0.4382 -0.1297,-0.162 -0.244,-0.2593 -0.3946,-0.4095 -0.338,-0.3369 -0.4943,-0.4945 -0.8901,-0.791 -1.8545,-1.389 -3.3618,-1.7124 -5.6702,-1.7124 z"
               style="fill:#ffcb00;fill-rule:evenodd"
               id="path45" />
            <path
               d="m 101.0135,129.4537 c -0.2016,0 -0.5944,-0.1113 -0.7601,-0.1902 -1.6564,-0.7882 -1.227,-3.3915 0.7601,-3.3915 1.6327,0 2.3429,2.024 1.1895,3.0901 -0.2376,0.2196 -0.7715,0.4916 -1.1895,0.4916 z m -2.9969,-1.9736 c 0,2.8241 2.663,3.6536 4.2672,2.8784 2.6861,-1.2979 2.0919,-5.4737 -1.1609,-5.6849 -0.8649,-0.0561 -1.6611,0.3044 -2.1395,0.7765 -0.4577,0.4516 -0.9668,1.155 -0.9668,2.03 z"
               style="fill:#ffcb00;fill-rule:evenodd"
               id="path47" />
            <path
               d="m 105.7646,127.6994 c 0,-1.0155 0.7887,-1.8274 1.8274,-1.8274 1.6143,0 2.3113,2.0813 1.1909,3.0913 -1.2108,1.0915 -3.0183,0.1492 -3.0183,-1.2639 z m -1.1695,-0.2924 c 0,1.0047 0.089,1.5934 0.8574,2.3587 1.4183,1.4125 3.8253,1.0539 4.767,-0.7545 1.3864,-2.6621 -1.8473,-5.89 -4.6663,-3.5699 -0.4561,0.3753 -0.9581,1.1521 -0.9581,1.9657 z"
               style="fill:#ffcb00;fill-rule:evenodd"
               id="path49" />
            <g
               id="Layer1008">
              <path
                 d="m 92.7433,110.2863 c 1.1665,2.3207 3.5402,2.6092 4.9399,3.3749 0.1757,-1.2457 1.9584,-3.894 0.8701,-6.2148 -2.4135,-5.1463 -8.3347,-2.1823 -5.81,2.8399 z m 3.4321,-4.238 c 0.5824,0.2893 0.9166,0.8015 0.7464,1.1441 -0.1701,0.3424 -0.7802,0.3857 -1.3625,0.0965 -0.5824,-0.2893 -0.9166,-0.8015 -0.7464,-1.1441 0.17,-0.3425 0.7802,-0.3857 1.3625,-0.0965 z"
                 style="fill:#ffcb00;fill-rule:evenodd"
                 id="path51" />
              <path
                 d="m 97.2868,112.3177 c 0.985,1.1304 0.6705,2.2835 0.4015,3.2697 -0.2257,0.8275 -0.41,1.5037 0.6674,1.7827 l 0.1951,0.0484 c 1.0554,0.2598 2.9745,0.7323 2.7332,2.9343 l -0.6043,-0.0642 c 0.1835,-1.6749 -1.4021,-2.0653 -2.2741,-2.2799 l -0.2022,-0.0508 c -1.6723,-0.4332 -1.4152,-1.3759 -1.1004,-2.5298 0.2292,-0.8407 0.4973,-1.8237 -0.2755,-2.7107 z"
                 style="fill:#ffcb00;fill-rule:evenodd"
                 id="path53" />
            </g>
            <g
               id="Layer1009">
              <path
                 d="m 100.013,105.0951 c -0.3293,2.5765 1.478,4.142 2.211,5.5591 0.8418,-0.9348 3.8,-2.135 4.1942,-4.6678 0.8739,-5.6166 -5.6928,-6.467 -6.4052,-0.8913 z m 5.2143,-1.597 c 0.3214,0.5654 0.3123,1.1769 -0.0202,1.3659 -0.3324,0.189 -0.8626,-0.116 -1.1839,-0.6812 -0.3213,-0.5654 -0.3123,-1.1769 0.0202,-1.3659 0.3324,-0.189 0.8626,0.116 1.1839,0.6812 z"
                 style="fill:#ffcb00;fill-rule:evenodd"
                 id="path56" />
              <path
                 d="m 102.646,109.3186 c 0.1852,1.4878 -0.7199,2.2684 -1.494,2.936 -0.6496,0.5602 -1.1803,1.0179 -0.4426,1.8513 l 0.1347,0.1492 c 0.7301,0.8052 2.0577,2.2694 0.6272,3.9607 l -0.4653,-0.3909 c 1.088,-1.2865 -0.009,-2.4962 -0.6121,-3.1615 l -0.1393,-0.1551 c -1.1448,-1.2936 -0.4048,-1.9318 0.501,-2.7129 0.6599,-0.5692 1.4314,-1.2346 1.2861,-2.402 z"
                 style="fill:#ffcb00;fill-rule:evenodd"
                 id="path58" />
            </g>
          </g>
          <g
             id="Layer1010">
            <path
               d="m 194.9417,91.2816 c 0,0.8587 0.7621,1.5782 1.6247,1.5782 h 22.3274 c 0.1351,0 0.4976,-0.1089 0.63,-0.1591 0.1183,-0.045 0.3479,-0.2306 0.4278,-0.315 0.9542,-1.0069 0.1866,-2.7288 -1.1042,-2.7288 H 196.52 c -0.7995,0 -1.5783,0.8184 -1.5783,1.6247 z"
               style="fill:#ffcb00;fill-rule:evenodd"
               id="path62" />
            <path
               d="m 198.3768,85.7577 c 0,0.5562 -0.0583,2.011 0.0463,2.4602 0.1123,0.0539 0.2031,0.0929 0.3714,0.0929 h 17.9641 c 0.1087,0 0.1856,-0.077 0.1856,-0.1857 0,-0.5895 0.06,-2.3288 -0.0464,-2.7851 -0.3459,-0.0288 -0.7079,-0.1452 -0.9483,-0.305 l -0.2383,-0.1795 c -0.007,-0.0062 -0.0177,-0.0151 -0.025,-0.0214 l -0.3499,-0.3464 c -0.006,-0.0072 -0.0152,-0.0176 -0.0215,-0.0249 l -0.0425,-0.0503 c -0.3209,-0.3883 -0.7125,-1.2357 -1.3753,-1.1888 -0.5801,0.041 -0.7655,0.4019 -0.9804,0.6417 -0.0621,0.0693 -0.1029,0.0945 -0.1575,0.1674 -0.4175,0.5581 -0.8276,1.3072 -1.9421,1.3072 -1.8136,0 -2.0434,-2.0874 -3.1147,-2.1184 -0.1766,-0.0051 -0.3623,0.0412 -0.4994,0.129 -0.5132,0.3289 -0.6877,0.8837 -1.1776,1.4218 -0.1263,0.1386 -0.2056,0.1849 -0.3682,0.2817 -0.6118,0.3641 -1.4685,0.3727 -2.0972,0.023 -0.3026,-0.1684 -0.4818,-0.3529 -0.6913,-0.6083 -0.2575,-0.3139 -0.4112,-0.6433 -0.6896,-0.935 -0.1551,-0.1625 -0.2056,-0.2128 -0.3842,-0.2657 -0.5361,-0.1589 -0.8977,0.0396 -1.1842,0.4066 l -0.6152,0.8238 c -0.2204,0.2776 -0.4623,0.5016 -0.7908,0.648 -0.4132,0.1843 -0.8278,0.0348 -0.8278,0.6112 z"
               style="fill:#ffcb00;fill-rule:evenodd"
               id="path64" />
            <path
               d="m 198.3768,83.8082 c 0,1.0752 1.1067,-0.4352 1.1249,-0.4533 0.2203,-0.2198 0.5504,-0.67 0.8441,-0.8734 0.6755,-0.4678 1.6008,-0.5046 2.2416,0.0404 l 0.4265,0.409 c 0.009,0.0097 0.0348,0.039 0.0439,0.049 0.2902,0.3191 0.7535,0.9358 1.0386,1.1431 0.2412,0.1754 0.6769,0.1712 0.946,-0.0086 0.5283,-0.3528 0.8037,-0.9072 1.1893,-1.3173 l 0.3196,-0.2839 c 0.007,-0.0062 0.0175,-0.0154 0.0249,-0.0215 0.4359,-0.3584 0.8317,-0.3546 1.3628,-0.3546 0.2433,0 0.6207,0.2092 0.8156,0.3449 0.1332,0.0927 0.1992,0.175 0.324,0.2794 0.7102,0.5947 1.0842,1.4645 1.5527,1.4645 0.5238,0 0.5775,0.0048 0.9715,-0.421 0.405,-0.4375 0.3256,-0.4995 0.897,-1.0526 0.1474,-0.1427 0.1417,-0.1599 0.3272,-0.2762 0.1621,-0.1016 0.1808,-0.1509 0.3924,-0.2112 1.0784,-0.3074 1.5878,-0.0768 2.4141,0.8116 0.3146,0.3381 0.7078,1.1494 1.2179,1.1494 0.2411,0 0.0707,-1.8471 -0.1862,-2.4597 l -0.3185,-0.7027 c -0.2371,-0.4757 -0.645,-1.003 -1.1,-1.3138 -1.269,-0.8669 -2.3453,-0.5055 -3.5544,-0.5764 -0.9496,-0.0557 -3.2604,-0.007 -4.3103,-0.007 l -5.1067,-6e-4 c -0.9594,-0.0055 -1.7291,0.178 -2.3816,0.7748 -0.007,0.0065 -0.0175,0.0154 -0.0245,0.0219 l -0.0484,0.0445 c -0.3886,0.3729 -0.3087,0.3156 -0.6151,0.731 -0.5658,0.7669 -0.8289,1.8684 -0.8289,3.0703 z"
               style="fill:#ffcb00;fill-rule:evenodd"
               id="path66" />
            <path
               d="m 203.9006,75.4063 v 3.2029 c 0,0.3602 0.8129,0.2321 1.439,0.2321 0.1086,0 0.1856,-0.077 0.1856,-0.1856 v -3.8992 c 0,-0.2186 -0.0879,-0.3941 -0.1841,-0.5121 -0.2943,-0.3608 -0.8431,-0.3357 -1.0986,-0.1672 -0.3638,0.2398 -0.3419,0.8255 -0.3419,1.3291 z"
               style="fill:#ffcb00;fill-rule:evenodd"
               id="path68" />
            <path
               d="m 206.8714,74.7565 c 0,0.7108 -0.0642,3.5638 0.0464,4.0384 0.4116,0.0959 0.9159,0.0464 1.3462,0.0464 0.1086,0 0.1856,-0.077 0.1856,-0.1856 v -3.8992 c 0,-1.0949 -1.5782,-1.0198 -1.5782,0 z"
               style="fill:#ffcb00;fill-rule:evenodd"
               id="path70" />
            <path
               d="m 209.935,74.8029 v 3.8528 c 0,0.3013 0.6502,0.1856 1.2997,0.1856 0.1509,0 0.0351,-0.0402 0.2322,-0.0928 0,-0.408 0.0318,-3.8831 -0.0175,-4.1139 -0.1994,-0.9339 -1.5144,-0.9132 -1.5144,0.1683 z"
               style="fill:#ffcb00;fill-rule:evenodd"
               id="path72" />
            <path
               d="m 203.7613,71.5072 c 0,0.6498 0.004,0.9011 0.2132,1.5043 0.2525,0.7279 0.8388,1.1084 1.4395,0.1019 0.1229,-0.2061 0.1025,-0.2777 0.18,-0.5163 0.1167,-0.3595 0.1966,-1.174 0.0718,-1.5555 l -0.3197,-0.7943 c -0.1166,-0.2437 -0.4093,-0.7142 -0.7028,-0.7825 -0.2973,0.199 -0.4411,0.5375 -0.5883,0.8507 -0.1486,0.3162 -0.2937,0.7495 -0.2937,1.1917 z"
               style="fill:#ffcb00;fill-rule:evenodd"
               id="path74" />
            <path
               d="m 206.6857,71.5536 c 0,0.5542 0.1638,1.7132 0.6497,2.0426 1.0678,0.7238 1.5028,-1.7189 1.1901,-2.6756 -0.0651,-0.1993 -0.0984,-0.3792 -0.1834,-0.5592 -0.4804,-1.0164 -0.7372,-1.3429 -1.3325,-0.0158 l -0.1945,0.5483 c -0.0514,0.189 -0.1294,0.3985 -0.1294,0.6597 z"
               style="fill:#ffcb00;fill-rule:evenodd"
               id="path76" />
            <path
               d="m 209.7493,71.5072 c 0,0.535 0.1638,2.1759 0.8871,2.2147 0.7423,0.0398 1.337,-1.8961 0.7998,-3.0661 -0.2163,-0.4711 -0.3039,-0.926 -0.8049,-1.191 -0.2783,0.1863 -0.4278,0.521 -0.5804,0.8585 -0.0963,0.2131 -0.3016,0.9138 -0.3016,1.1839 z"
               style="fill:#ffcb00;fill-rule:evenodd"
               id="path78" />
          </g>
          <g
             id="Layer1011">
            <path
               d="m 170.5275,78.0359 c -0.7198,0.1048 -4.0669,0.0598 -4.7446,0.0598 -0.4325,0 -0.8431,-0.0419 -1.1586,-0.1482 -0.4473,-0.1507 -0.5108,-0.1903 -0.8711,-0.4357 -0.5765,-0.3926 -0.8442,-0.8617 -1.0586,-1.5166 -0.153,-0.4675 -1.6919,-1.7719 -2.2443,-2.3293 -0.2107,-0.2125 -0.2648,-0.1677 -0.2789,-0.3361 0.2586,0.124 3.4844,0.6517 3.7282,0.7687 -0.0366,0.1372 -0.1249,0.1793 -0.2092,0.2904 -0.2143,0.2823 -0.4058,0.6433 -0.4058,1.0163 0,1.1214 1.0757,1.8626 2.229,1.922 0.2165,0.0111 0.4721,7e-4 0.6923,-5e-4 0.2696,-0.0014 0.3838,0.0374 0.6132,0.0402 0.4594,0.0057 0.925,-0.0015 1.3852,-0.0015 0.629,0 1.4453,0.0724 1.9586,0.0784 0.4666,0.0055 1.3612,0.0738 1.6158,0.4213 -0.063,0.0302 -1.0664,0.1439 -1.2512,0.1708 z m -3.0151,-5.0136 c -0.1616,-0.3368 -0.0415,-0.7003 -0.0368,-1.0746 0.0332,-2.6865 -0.002,-5.6049 -0.002,-8.3034 -0.1574,0.042 -0.1533,0.1621 -0.2196,0.3184 -0.1776,0.4186 -0.9768,2.2953 -1.1464,2.5817 -0.5878,0.9918 -1.9769,0.7944 -3.3198,0.9465 -0.2891,0.0327 -0.6561,0.0971 -0.9644,0.1118 -0.368,0.0175 -0.6262,0.0457 -0.9929,0.0833 -0.2785,0.0285 -0.6776,0.1101 -0.9677,0.1085 -0.2683,-0.0016 -0.3091,-0.0555 -0.3111,0.2269 l 0.004,4.7318 c -0.2256,-0.0187 -0.4614,-0.2999 -0.647,-0.429 -0.3895,-0.2709 -0.6017,-0.3012 -1.0441,-0.3012 -0.5472,0 -0.9348,1.153 -0.4607,2.2286 0.2235,0.507 0.1349,0.3267 0.4196,0.7719 0.0887,0.1387 0.1571,0.2235 0.2629,0.3521 l 0.5416,0.6883 c 0.0887,0.1111 0.1663,0.2008 0.2581,0.3184 l 1.7514,2.1689 c 0.0616,0.0766 0.0609,0.0903 0.138,0.1695 0.5479,0.5627 0.7507,0.9199 1.6547,1.3431 0.8754,0.4099 2.8003,0.9269 3.8515,0.9529 l 1.6897,0.1168 c 1.5483,0.0191 1.8242,-0.0962 3.0813,-0.6114 l 2.4541,-1.005 c 0.0866,-0.038 0.176,-0.0777 0.2697,-0.1147 0.488,-0.1926 0.5919,-0.2588 1.1445,-0.3928 0.2022,-0.049 0.395,-0.0877 0.6444,-0.1244 0.5664,-0.0833 1.5909,-0.0594 2.2467,-0.0593 0.3419,0 0.6534,0.0681 0.6534,-0.1153 v -5.7268 c 0,-0.1674 -0.2059,-0.1183 -0.3836,-0.1159 -0.9234,0.0124 -1.0039,0.0894 -1.6754,-0.2848 -0.5607,-0.3125 -0.8463,-0.3066 -1.0542,-0.4064 v -3.805 c 4e-4,-0.5212 0.0675,-0.5715 -0.1875,-0.5811 -0.5623,-0.0213 -0.8783,-0.1107 -1.3883,-0.1107 0,0.7343 -0.0384,1.3605 -0.0384,2.1139 0,0.7046 0,1.4093 0,2.1139 l -3.1032,0.5866 c -0.3375,0.0651 -2.7794,0.5203 -3.1233,0.528 z"
               style="fill:#ffcb00;fill-rule:evenodd"
               id="path81" />
            <path
               d="m 157.212,66.6422 c 0,0.3696 0.6875,0.2008 1.1363,0.137 0.3043,-0.0432 0.6461,-0.0506 0.9125,-0.0868 0.6291,-0.0855 1.2701,-0.0997 1.8609,-0.1761 0.8895,-0.1151 1.8173,-0.1737 2.7336,-0.2643 0.1139,-0.0113 0.3206,-0.0541 0.4343,-0.0655 0.7603,-0.0756 0.7784,0.0215 1.1359,-0.901 0.4646,-1.199 1.2095,-2.6895 1.6866,-3.8864 0.0588,-0.1475 0.0821,-0.2196 0.1421,-0.3576 0.0587,-0.135 0.1098,-0.2528 0.1429,-0.3951 h 0.1153 c 0.0581,0.2491 0.4751,1.1574 0.582,1.4166 l 0.9225,2.1138 c 0.0914,0.2232 0.2019,0.4722 0.3009,0.6985 0.6218,1.4202 0.3068,1.2039 1.6643,1.372 0.3134,0.0388 0.6191,0.0263 0.9286,0.0707 0.6235,0.0894 1.2288,0.1007 1.85,0.187 l 2.7444,0.2535 c 0.3409,0.0175 1.231,0.3199 1.231,-0.1548 0,-0.1064 -0.8448,-1.726 -1.0048,-2.0315 -0.0648,-0.1238 -0.1007,-0.2026 -0.1649,-0.3348 -0.0439,-0.0905 -0.0575,-0.1098 -0.0908,-0.1783 l -0.2603,-0.5083 c -0.0642,-0.1322 -0.1001,-0.211 -0.1649,-0.3348 -0.6951,-1.3275 -0.351,-1.0635 -1.7457,-1.329 l -5.1005,-1.0106 c -0.1508,-0.0251 -0.2769,-0.0428 -0.4189,-0.0808 l -1.3113,-0.2645 -0.83,0.1693 c -0.3014,0.0648 -0.6008,0.1217 -0.8722,0.1655 l -2.113,0.4236 c -0.1619,0.0302 -0.2685,0.0372 -0.4279,0.0718 L 159.797,62.04 c -0.3786,0.0656 -0.4182,0.149 -0.5737,0.464 l -1.6225,3.2203 c -0.0458,0.0947 -0.0453,0.0853 -0.0909,0.1781 -0.1209,0.2457 -0.2979,0.5059 -0.2979,0.7398 z"
               style="fill:#ffcb00;fill-rule:evenodd"
               id="path83" />
          </g>
        </g>
        <g
           id="Layer1012">
          <path
             d="m 95.1629,139.0294 c 5.0895,-1.1782 10.1753,-0.182 14.2825,2.3801 4.1087,2.5632 7.2415,6.696 8.4209,11.7876 1.1788,5.0884 0.1826,10.1747 -2.3801,14.2824 -2.5626,4.1088 -6.6954,7.2416 -11.7876,8.421 -5.0884,1.1788 -10.1747,0.1825 -14.2824,-2.3801 -4.1088,-2.5626 -7.241,-6.6954 -8.4204,-11.7876 -1.1777,-5.0895 -0.1826,-10.1753 2.3801,-14.2824 2.5631,-4.1088 6.6948,-7.2405 11.787,-8.421 z m 13.2894,3.9764 c -3.7008,-2.3085 -8.2842,-3.2054 -12.8697,-2.1435 -4.5834,1.0624 -8.3025,3.8824 -10.6104,7.5811 -2.3085,3.7003 -3.2055,8.2843 -2.1441,12.8687 1.0619,4.5845 3.8824,8.3046 7.5811,10.612 3.7009,2.3085 8.2843,3.206 12.8698,2.1441 4.5829,-1.0614 8.3035,-3.8819 10.6109,-7.5817 2.3085,-3.7009 3.206,-8.2843 2.1441,-12.8698 -1.0614,-4.5823 -3.8819,-8.3029 -7.5817,-10.6109 z"
             style="fill:#ffcb00;fill-rule:evenodd"
             id="path87" />
          <path
             d="m 98.1142,97.5404 c 5.0895,-1.1783 10.1753,-0.1821 14.2825,2.38 4.1087,2.5632 7.2415,6.696 8.4209,11.7876 1.1788,5.0884 0.1826,10.1747 -2.3801,14.2824 -2.5626,4.1088 -6.6954,7.2416 -11.7876,8.421 -5.0884,1.1788 -10.1747,0.1826 -14.2824,-2.3801 -4.1087,-2.5626 -7.241,-6.6954 -8.4204,-11.7876 -1.1777,-5.0895 -0.1826,-10.1753 2.3801,-14.2824 2.5631,-4.1088 6.6949,-7.2405 11.787,-8.4209 z m 13.2894,3.9763 c -3.7008,-2.3085 -8.2842,-3.2054 -12.8697,-2.1435 -4.5834,1.0624 -8.3025,3.8824 -10.6104,7.5811 -2.3085,3.7003 -3.2055,8.2843 -2.1441,12.8687 1.0619,4.5845 3.8824,8.3046 7.5811,10.612 3.7009,2.3085 8.2843,3.206 12.8698,2.1441 4.5829,-1.0614 8.3035,-3.8819 10.6109,-7.5817 2.3085,-3.7009 3.206,-8.2843 2.1441,-12.8698 -1.0614,-4.5823 -3.8819,-8.3029 -7.5817,-10.6109 z"
             style="fill:#ffcb00;fill-rule:evenodd"
             id="path89" />
          <path
             d="m 123.889,64.895 c 5.0895,-1.1783 10.1753,-0.182 14.2825,2.3801 4.1087,2.5631 7.2415,6.6959 8.4209,11.7876 1.1788,5.0884 0.1826,10.1747 -2.3801,14.2824 -2.5626,4.1088 -6.6954,7.2416 -11.7876,8.4209 -5.0884,1.1788 -10.1747,0.1826 -14.2824,-2.38 -4.1088,-2.5627 -7.241,-6.6954 -8.4204,-11.7876 -1.1777,-5.0895 -0.1826,-10.1753 2.3801,-14.2824 2.5631,-4.1088 6.6948,-7.2406 11.787,-8.421 z m 13.2894,3.9764 c -3.7008,-2.3085 -8.2842,-3.2054 -12.8697,-2.1436 -4.5834,1.0625 -8.3025,3.8824 -10.6104,7.5812 -2.3085,3.7003 -3.2055,8.2842 -2.1441,12.8687 1.0619,4.5844 3.8824,8.3045 7.5811,10.612 3.7009,2.3085 8.2843,3.2059 12.8698,2.144 4.5829,-1.0613 8.3035,-3.8818 10.6109,-7.5816 2.3085,-3.7009 3.206,-8.2843 2.1441,-12.8698 -1.0614,-4.5823 -3.8819,-8.3029 -7.5817,-10.6109 z"
             style="fill:#ffcb00;fill-rule:evenodd"
             id="path91" />
          <path
             d="m 163.5608,52.3974 c 5.0895,-1.1783 10.1753,-0.1821 14.2824,2.38 4.1088,2.5632 7.2416,6.696 8.421,11.7876 1.1788,5.0884 0.1825,10.1747 -2.3801,14.2824 -2.5626,4.1088 -6.6954,7.2416 -11.7876,8.421 -5.0884,1.1788 -10.1747,0.1826 -14.2824,-2.3801 -4.1088,-2.5626 -7.2411,-6.6954 -8.4204,-11.7876 -1.1778,-5.0895 -0.1826,-10.1752 2.38,-14.2824 2.5632,-4.1088 6.6949,-7.2405 11.7871,-8.4209 z m 13.2894,3.9763 c -3.7009,-2.3085 -8.2843,-3.2054 -12.8698,-2.1435 -4.5834,1.0624 -8.3024,3.8824 -10.6104,7.5811 -2.3085,3.7004 -3.2054,8.2843 -2.144,12.8687 1.0618,4.5845 3.8824,8.3046 7.5811,10.612 3.7009,2.3085 8.2843,3.206 12.8698,2.1441 4.5828,-1.0614 8.3035,-3.8819 10.6109,-7.5817 2.3085,-3.7009 3.206,-8.2842 2.1441,-12.8698 -1.0614,-4.5823 -3.8819,-8.3029 -7.5817,-10.6109 z"
             style="fill:#ffcb00;fill-rule:evenodd"
             id="path93" />
          <path
             d="m 203.3922,64.3761 c 5.0895,-1.1783 10.1753,-0.1821 14.2824,2.38 4.1088,2.5632 7.2416,6.696 8.4209,11.7876 1.1789,5.0885 0.1826,10.1748 -2.38,14.2825 -2.5626,4.1087 -6.6954,7.2416 -11.7876,8.4209 -5.0884,1.1788 -10.1747,0.1826 -14.2824,-2.38 -4.1088,-2.5627 -7.2411,-6.6955 -8.4204,-11.7876 -1.1778,-5.0896 -0.1826,-10.1753 2.38,-14.2825 2.5632,-4.1087 6.6949,-7.2405 11.7871,-8.4209 z m 13.2894,3.9763 c -3.7009,-2.3085 -8.2843,-3.2054 -12.8698,-2.1435 -4.5834,1.0624 -8.3024,3.8824 -10.6104,7.5811 -2.3085,3.7004 -3.2054,8.2843 -2.144,12.8688 1.0618,4.5844 3.8823,8.3045 7.5811,10.6119 3.7009,2.3086 8.2842,3.206 12.8698,2.1441 4.5828,-1.0613 8.3034,-3.8818 10.6109,-7.5817 2.3085,-3.7008 3.206,-8.2842 2.1441,-12.8697 -1.0614,-4.5823 -3.8819,-8.303 -7.5817,-10.611 z"
             style="fill:#ffcb00;fill-rule:evenodd"
             id="path95" />
        </g>
      </g>
    </g>
  </g>
</svg>
